<!-- icon666.com - MILLIONS vector ICONS FREE --><svg viewBox="0 0 480 480" xmlns="http://www.w3.org/2000/svg" xmlns:xlink="http://www.w3.org/1999/xlink"><radialGradient id="radial-gradient" cx="240" cy="240" gradientUnits="userSpaceOnUse" r="240"><stop offset=".88" stop-opacity="0"></stop><stop offset="1" stop-opacity=".3"></stop></radialGradient><g id="Layer_2" data-name="Layer 2"><g id="Russia"><circle cx="240" cy="240" fill="#0a389e" r="240"></circle><path d="m461.74 332c-35.7 86-120 146.76-218.64 148h-6.2c-98.64-1.27-182.9-62-218.64-148z" fill="#ed1d2a"></path><path d="m461.73 148h-443.46c35.73-86 120-146.73 218.63-148h6.2c98.63 1.27 182.9 62 218.63 148z" fill="#fff"></path><path d="m240 0c-132.55 0-240 107.45-240 240s107.45 240 240 240 240-107.45 240-240-107.45-240-240-240zm0 452c-116.9 0-212-95.1-212-212s95.1-212 212-212 212 95.1 212 212-95.1 212-212 212z" fill="url(#radial-gradient)"></path></g></g></svg>